<?xml version="1.0" encoding="utf-8"?>
<!-- Generator: Adobe Illustrator 24.1.2, SVG Export Plug-In . SVG Version: 6.00 Build 0)  -->
<svg version="1.1" id="Layer_1" xmlns="http://www.w3.org/2000/svg" xmlns:xlink="http://www.w3.org/1999/xlink" x="0px" y="0px"
	 viewBox="0 0 1000 1000" style="enable-background:new 0 0 1000 1000;" xml:space="preserve">
<style type="text/css">
	.st0{fill:#F6416C;}
	.st1{fill:#00B8A9;}
	.st2{fill:#FFDE7D;}
</style>
<path class="st0" d="M37.1,292.4L37.1,292.4c37.1-29,89.7-27.1,124.6,4.6l25.1,22.8c28.7,26.1,39,66.8,26.2,103.3l-18.9,54.1
	c-14.1,40.5-53.3,66.8-96.1,64.7l-6.2-0.3C40.3,539,0,496.6,0,445.1v-76.6C0,338.8,13.7,310.7,37.1,292.4z"/>
<path class="st1" d="M307.6,927.8l12.8-145.5c2-22.8,15.6-43,36-53.4l116.3-59.2c17.2-8.8,37.5-9.6,55.4-2.2l6.3,2.6
	c45.7,18.8,55.6,79.2,18.2,111.5l-6.7,5.8c-29.5,25.6-30.6,71.1-2.4,98.1l0,0c43.3,41.4,14,114.4-45.9,114.4h-124
	C334.8,1000,304.2,966.6,307.6,927.8z"/>
<path class="st0" d="M1000,619.7l-118-80.6c-26.8-18.3-47.8-43.9-60.4-73.8l0,0c-41.1-97.3,16.1-208,119.2-230.8l59.2-13.1"/>
<path class="st2" d="M407,5.6l-95.8,115.9c-5.5,6.6-4.4,16.4,2.3,21.8L479,274.1c6.6,5.2,16.2,4.1,21.4-2.4l126.2-157
	c3.5-4.3,4.3-10.2,2.3-15.3l-21-51.8c-2.9-7.1-0.1-15.1,6.5-19l0,0C628,20.7,622.4,0,606.7,0H418.8C414.3,0,409.9,2,407,5.6z"/>
<path class="st1" d="M400.4,516.5l4.6-73.4c0.8-13.4,10.3-24.8,23.3-28.1l88.5-22.4c13.2-3.4,27.1,2.4,34.2,14.1l10.3,17.1
	c10.5,17.5,1.6,40.2-18.1,45.8l-30.7,8.7c-16.7,4.7-26.2,22.2-21.2,38.8l0,0c4.8,15.9-3.8,32.8-19.5,38.2l-17.3,6
	c-11.5,4-24.3,0.9-32.7-7.9l-13-13.7C402.9,533.6,399.9,525.2,400.4,516.5z"/>
<path class="st2" d="M740.4,706l-19.5-44.6c-1.6-3.6-3.9-6.8-6.8-9.5l-44.7-41.5c-12.5-11.6-12.2-31.5,0.7-42.7h0
	c9.3-8.1,22.7-9.3,33.4-3.1l98.2,57.7c12.5,7.3,17.6,22.9,11.8,36.2L793,705.9C783,728.9,750.5,728.9,740.4,706z"/>
<path class="st0" d="M92.1,768.8l-6-66.5c-1.2-12.9,9-24,21.9-24h104c12.1,0,22,9.8,22,22v46.4c0,11.1-8.3,20.5-19.4,21.8l-73.7,8.9
	c-4.5,0.5-8.8,2.5-12.2,5.6l0,0C115.4,795.3,93.8,786.9,92.1,768.8z"/>
<path class="st0" d="M793.1,74.3l-36.2,5.4c-8.2,1.2-14.3,8.3-14.3,16.5v55.4c0,10.9,10.3,18.9,20.9,16.2l56.7-14.5
	c15.2-3.9,17.1-24.6,3-31.3l-4.4-2.1c-8.3-3.9-11.9-13.8-8-22.1l0,0C816.3,85.7,806.3,72.3,793.1,74.3z"/>
<g>
</g>
<g>
</g>
<g>
</g>
<g>
</g>
<g>
</g>
</svg>
